<svg xmlns="http://www.w3.org/2000/svg" width="900" height="345" viewBox="0 0 900 345" role="img" aria-label="CStonx: Leetify and FACEIT stats for all 10 players in your CS2 match, right in the Steam overlay">
<path d="M0 0H900V345V345H0Z" fill="#f4f1fe"/>
<g fill="none" stroke="#6a5af9" stroke-opacity=".35"><line x1=".5" y1="0" x2=".5" y2="345"/><line x1="899.5" y1="0" x2="899.5" y2="345"/></g>
<svg x="20" y="10" width="860" height="324.89" viewBox="0 0 900 340">
<style>
  text { font-family: -apple-system, BlinkMacSystemFont, 'Segoe UI', Helvetica, Arial, sans-serif; }
  .mono { font-family: ui-monospace, SFMono-Regular, 'SF Mono', Menlo, Consolas, 'Liberation Mono', monospace; }
  .label { font-size: 12px; font-weight: 600; letter-spacing: 3px; fill: #6a5af9; }
  .brand { font-size: 46px; font-weight: 800; letter-spacing: -1.5px; fill: #1f2328; }
  .tag { font-size: 17px; fill: #59636e; }
  .chip { font-size: 12px; font-weight: 500; fill: #1f2328; }
  .head { font-size: 10px; font-weight: 600; letter-spacing: 1.5px; fill: #59636e; }
  .rating { font-size: 12px; font-weight: 600; }
  .lvl { font-size: 8px; letter-spacing: -.3px; font-weight: 700; }
  .live { animation: pulse 1.6s ease-in-out infinite; }
  @keyframes pulse { 50% { opacity: .25; } }
  @media (prefers-reduced-motion: reduce) { * { animation: none !important; } }
</style>
<defs>
  <linearGradient id="bg" x1="0" y1="0" x2="1" y2="1">
    <stop offset="0" stop-color="#ffffff"/><stop offset="1" stop-color="#f3efff"/>
  </linearGradient>
  <radialGradient id="g1"><stop offset="0" stop-color="#6a5af9" stop-opacity="0.40"/><stop offset="1" stop-color="#6a5af9" stop-opacity="0"/></radialGradient>
  <clipPath id="frame"><rect width="900" height="340" rx="16"/></clipPath>
</defs>
<g clip-path="url(#frame)">
  <rect width="900" height="340" fill="url(#bg)"/>
  <circle cx="700" cy="170" r="280" fill="url(#g1)"/>
</g>
<rect x=".5" y=".5" width="899" height="339" rx="16" fill="none" stroke="#d1d9e0"/>

<text class="label" x="50" y="94">WHAT I'M BUILDING</text>
<text class="brand" x="48" y="146">CStonx</text>
<text class="tag" x="50" y="184">Leetify and FACEIT stats for all 10 players</text>
<text class="tag" x="50" y="208">in your CS2 match, right in the Steam overlay.</text>
<rect x="48" y="244" width="126" height="26" rx="13" fill="#f6f8fa" stroke="#d1d9e0"/><text class="chip" x="111" y="261" text-anchor="middle">C++ Windows app</text><rect x="182.0" y="244" width="133" height="26" rx="13" fill="#f6f8fa" stroke="#d1d9e0"/><text class="chip" x="249" y="261" text-anchor="middle">Vue + TypeScript</text><rect x="323.2" y="244" width="112" height="26" rx="13" fill="#f6f8fa" stroke="#d1d9e0"/><text class="chip" x="379" y="261" text-anchor="middle">Steam overlay</text>

<rect x="520" y="30" width="340" height="290" rx="10" fill="#f6f8fa" fill-opacity=".9" stroke="#d1d9e0"/>
<circle class="live" cx="540" cy="52" r="4" fill="#f85149"/>
<text class="head" x="552" y="56">LIVE MATCH</text>
<text class="head" x="760" y="56" text-anchor="end">LEETIFY</text>
<text class="head" x="826" y="56" text-anchor="middle">FACEIT</text>
<g><rect x="538" y="78" width="3" height="13" rx="1.5" fill="#5b9bd5"/><circle cx="558" cy="84.5" r="6" fill="#d1d9e0"/><rect x="572" y="80" width="74" height="9" rx="4.5" fill="#d1d9e0"/><text class="mono rating" x="760" y="88" text-anchor="end" fill="#3fb950">+3.1</text><circle cx="826" cy="84.5" r="8.5" fill="none" stroke="#fe1f00" stroke-width="2"/><text class="lvl" x="826" y="88" text-anchor="middle" fill="#fe1f00">10</text></g><g><rect x="538" y="100" width="3" height="13" rx="1.5" fill="#5b9bd5"/><circle cx="558" cy="106.5" r="6" fill="#d1d9e0"/><rect x="572" y="102" width="58" height="9" rx="4.5" fill="#d1d9e0"/><text class="mono rating" x="760" y="110" text-anchor="end" fill="#3fb950">+1.8</text><circle cx="826" cy="106.5" r="8.5" fill="none" stroke="#ff6309" stroke-width="2"/><text class="lvl" x="826" y="110" text-anchor="middle" fill="#ff6309">8</text></g><g><rect x="538" y="122" width="3" height="13" rx="1.5" fill="#5b9bd5"/><circle cx="558" cy="128.5" r="6" fill="#d1d9e0"/><rect x="572" y="124" width="66" height="9" rx="4.5" fill="#d1d9e0"/><text class="mono rating" x="760" y="132" text-anchor="end" fill="#3fb950">+2.4</text><circle cx="826" cy="128.5" r="8.5" fill="none" stroke="#ff6309" stroke-width="2"/><text class="lvl" x="826" y="132" text-anchor="middle" fill="#ff6309">9</text></g><g><rect x="538" y="144" width="3" height="13" rx="1.5" fill="#5b9bd5"/><circle cx="558" cy="150.5" r="6" fill="#d1d9e0"/><rect x="572" y="146" width="50" height="9" rx="4.5" fill="#d1d9e0"/><text class="mono rating" x="760" y="154" text-anchor="end" fill="#f85149">-0.6</text><circle cx="826" cy="150.5" r="8.5" fill="none" stroke="#c79500" stroke-width="2"/><text class="lvl" x="826" y="154" text-anchor="middle" fill="#c79500">6</text></g><g><rect x="538" y="166" width="3" height="13" rx="1.5" fill="#5b9bd5"/><circle cx="558" cy="172.5" r="6" fill="#d1d9e0"/><rect x="572" y="168" width="70" height="9" rx="4.5" fill="#d1d9e0"/><text class="mono rating" x="760" y="176" text-anchor="end" fill="#3fb950">+0.9</text><circle cx="826" cy="172.5" r="8.5" fill="none" stroke="#c79500" stroke-width="2"/><text class="lvl" x="826" y="176" text-anchor="middle" fill="#c79500">7</text></g><g><rect x="538" y="202" width="3" height="13" rx="1.5" fill="#e8b04b"/><circle cx="558" cy="208.5" r="6" fill="#d1d9e0"/><rect x="572" y="204" width="62" height="9" rx="4.5" fill="#d1d9e0"/><text class="mono rating" x="760" y="212" text-anchor="end" fill="#3fb950">+0.2</text><circle cx="826" cy="208.5" r="8.5" fill="none" stroke="#c79500" stroke-width="2"/><text class="lvl" x="826" y="212" text-anchor="middle" fill="#c79500">5</text></g><g><rect x="538" y="224" width="3" height="13" rx="1.5" fill="#e8b04b"/><circle cx="558" cy="230.5" r="6" fill="#d1d9e0"/><rect x="572" y="226" width="54" height="9" rx="4.5" fill="#d1d9e0"/><text class="mono rating" x="760" y="234" text-anchor="end" fill="#3fb950">+4.0</text><circle cx="826" cy="230.5" r="8.5" fill="none" stroke="#fe1f00" stroke-width="2"/><text class="lvl" x="826" y="234" text-anchor="middle" fill="#fe1f00">10</text></g><g><rect x="538" y="246" width="3" height="13" rx="1.5" fill="#e8b04b"/><circle cx="558" cy="252.5" r="6" fill="#d1d9e0"/><rect x="572" y="248" width="76" height="9" rx="4.5" fill="#d1d9e0"/><text class="mono rating" x="760" y="256" text-anchor="end" fill="#f85149">-1.7</text><circle cx="826" cy="252.5" r="8.5" fill="none" stroke="#1a9a00" stroke-width="2"/><text class="lvl" x="826" y="256" text-anchor="middle" fill="#1a9a00">3</text></g><g><rect x="538" y="268" width="3" height="13" rx="1.5" fill="#e8b04b"/><circle cx="558" cy="274.5" r="6" fill="#d1d9e0"/><rect x="572" y="270" width="60" height="9" rx="4.5" fill="#d1d9e0"/><text class="mono rating" x="760" y="278" text-anchor="end" fill="#3fb950">+1.2</text><circle cx="826" cy="274.5" r="8.5" fill="none" stroke="#ff6309" stroke-width="2"/><text class="lvl" x="826" y="278" text-anchor="middle" fill="#ff6309">8</text></g><g><rect x="538" y="290" width="3" height="13" rx="1.5" fill="#e8b04b"/><circle cx="558" cy="296.5" r="6" fill="#d1d9e0"/><rect x="572" y="292" width="68" height="9" rx="4.5" fill="#d1d9e0"/><text class="mono rating" x="760" y="300" text-anchor="end" fill="#f85149">-0.3</text><circle cx="826" cy="296.5" r="8.5" fill="none" stroke="#c79500" stroke-width="2"/><text class="lvl" x="826" y="300" text-anchor="middle" fill="#c79500">4</text></g>
</svg>
</svg>
