<svg xmlns="http://www.w3.org/2000/svg" width="230" height="68" viewBox="0 0 230 68" role="img" aria-label="CStonx: cstonx.thaskow.fr">
<defs><clipPath id="bdclip"><path d="M0 0H230V68V68H0Z"/></clipPath></defs>
<path d="M0 0H230V68V68H0Z" fill="#100d1d"/>
<g clip-path="url(#bdclip)"><svg x="0" y="0" width="230" height="68" viewBox="0 0 230 68">
<style>text { font-family: -apple-system, BlinkMacSystemFont, 'Segoe UI', Helvetica, Arial, sans-serif; }</style>
<rect x="20.5" y="10.5" width="199" height="47" rx="12" fill="#161b22" stroke="#30363d"/>
<svg x="30" y="18" width="32" height="32" viewBox="0 0 32 32"><linearGradient id="cx" x1="0" y1="0" x2="32" y2="32" gradientUnits="userSpaceOnUse"><stop stop-color="#38bdf8"/><stop offset="1" stop-color="#6366f1"/></linearGradient>
<rect width="32" height="32" rx="9" fill="url(#cx)"/><circle cx="16" cy="16" r="7.5" fill="none" stroke="#fff" stroke-width="2"/>
<path d="M16 5.5v5M16 21.5v5M5.5 16h5M21.5 16h5" stroke="#fff" stroke-width="2" stroke-linecap="round"/><circle cx="16" cy="16" r="1.8" fill="#fff"/></svg>
<text x="72" y="31" font-size="13.5" font-weight="700" fill="#e6edf3">CStonx <tspan fill="#7b6cff" font-weight="400">↗</tspan></text>
<text x="72" y="47" font-size="11.5" fill="#8b949e">cstonx.thaskow.fr</text>
</svg>
</g>
<g fill="none" stroke="#7b6cff" stroke-opacity=".35"><line x1=".5" y1="0" x2=".5" y2="68"/></g>
</svg>
