<svg xmlns="http://www.w3.org/2000/svg" width="220" height="68" viewBox="0 0 220 68" role="img" aria-label="X: @thaskow">
<defs><clipPath id="bdclip"><path d="M0 0H220V68V68H0Z"/></clipPath></defs>
<path d="M0 0H220V68V68H0Z" fill="#fcfbff"/>
<g clip-path="url(#bdclip)"><svg x="0" y="0" width="220" height="68" viewBox="0 0 220 68">
<style>text { font-family: -apple-system, BlinkMacSystemFont, 'Segoe UI', Helvetica, Arial, sans-serif; }</style>
<rect x="10.5" y="10.5" width="199" height="47" rx="12" fill="#f6f8fa" stroke="#d1d9e0"/>
<svg x="20" y="18" width="32" height="32" viewBox="0 0 32 32"><rect width="32" height="32" rx="9" fill="#1f2328"/><path transform="translate(8 8) scale(.667)" d="M14.234 10.162 22.977 0h-2.072l-7.591 8.824L7.251 0H.258l9.168 13.343L.258 24H2.33l8.016-9.318L16.749 24h6.993zm-2.837 3.299-.929-1.329L3.076 1.56h3.182l5.965 8.532.929 1.329 7.754 11.09h-3.182z" fill="#ffffff"/></svg>
<text x="62" y="31" font-size="13.5" font-weight="700" fill="#1f2328">X <tspan fill="#6a5af9" font-weight="400">↗</tspan></text>
<text x="62" y="47" font-size="11.5" fill="#59636e">@thaskow</text>
</svg>
</g>
<g fill="none" stroke="#6a5af9" stroke-opacity=".35"></g>
</svg>
