<svg xmlns="http://www.w3.org/2000/svg" width="220" height="64" viewBox="0 0 220 64" role="img" aria-label="@thaskow">
<defs><clipPath id="bdclip"><path d="M0 0H220V64V64H0Z"/></clipPath></defs>
<path d="M0 0H220V64V64H0Z" fill="#100d1d"/>
<g clip-path="url(#bdclip)"><svg x="0" y="0" width="220" height="64" viewBox="0 0 220 64">
<style>text { font-family: -apple-system, BlinkMacSystemFont, 'Segoe UI', Helvetica, Arial, sans-serif; }</style>
<rect x="10.5" y="10.5" width="199" height="43" rx="12" fill="#161b22" stroke="#30363d"/>
<svg x="20" y="18" width="28" height="28" viewBox="0 0 32 32"><rect width="32" height="32" rx="9" fill="#e6edf3"/><path transform="translate(8 8) scale(.667)" d="M14.234 10.162 22.977 0h-2.072l-7.591 8.824L7.251 0H.258l9.168 13.343L.258 24H2.33l8.016-9.318L16.749 24h6.993zm-2.837 3.299-.929-1.329L3.076 1.56h3.182l5.965 8.532.929 1.329 7.754 11.09h-3.182z" fill="#0d1117"/></svg>
<text x="58" y="37" font-size="14" font-weight="600" fill="#e6edf3">@thaskow</text>
<text x="196" y="37" text-anchor="end" font-size="13" fill="#8b949e">↗</text>
</svg>
</g>
</svg>
