<svg xmlns="http://www.w3.org/2000/svg" width="900" height="379" viewBox="0 0 900 379" role="img" aria-label="Live status of my self-hosted services and latest CStonx releases: All systems operational">
<defs><clipPath id="bdclip"><path d="M0 0H900V379V379H0Z"/></clipPath></defs>
<path d="M0 0H900V379V379H0Z" fill="#100d1d"/>
<g clip-path="url(#bdclip)"><svg x="20" y="10" width="860" height="359.29" viewBox="0 0 900 376">
<style>
  text { font-family: -apple-system, BlinkMacSystemFont, 'Segoe UI', Helvetica, Arial, sans-serif; }
  .label { font-size: 12px; font-weight: 600; letter-spacing: 3px; fill: #7b6cff; }
  .title { font-size: 22px; font-weight: 800; letter-spacing: -.5px; fill: #e6edf3; }
  .summary { font-size: 12px; font-weight: 600; }
  .checked { font-family: ui-monospace, SFMono-Regular, 'SF Mono', Menlo, Consolas, 'Liberation Mono', monospace; font-size: 11px; fill: #8b949e; }
  .svc { font-size: 14px; font-weight: 600; fill: #e6edf3; }
  .role, .date { font-size: 11.5px; fill: #8b949e; }
  .pct { font-family: ui-monospace, SFMono-Regular, 'SF Mono', Menlo, Consolas, 'Liberation Mono', monospace; font-size: 12.5px; fill: #e6edf3; font-variant-numeric: tabular-nums; }
  .tag { font-family: ui-monospace, SFMono-Regular, 'SF Mono', Menlo, Consolas, 'Liberation Mono', monospace; font-size: 11.5px; font-weight: 700; fill: #e6edf3; }
  .note { font-size: 13px; fill: #e6edf3; }
  .dot { animation: pulse 2.4s ease-in-out infinite; }
  .down { animation-duration: .8s; }
  @keyframes pulse { 50% { opacity: .35; } }
  @media (prefers-reduced-motion: reduce) { * { animation: none !important; } }
</style>
<defs>
  <linearGradient id="bg" x1="0" y1="0" x2="1" y2="1">
    <stop offset="0" stop-color="#0d1117"/><stop offset="1" stop-color="#18132e"/>
  </linearGradient>
  <radialGradient id="g2"><stop offset="0" stop-color="#c58bff" stop-opacity="0.38"/><stop offset="1" stop-color="#c58bff" stop-opacity="0"/></radialGradient>
  <clipPath id="frame"><rect width="900" height="376" rx="16"/></clipPath>
</defs>
<g clip-path="url(#frame)">
  <rect width="900" height="376" fill="url(#bg)"/>
  <circle cx="820" cy="40" r="240" fill="url(#g2)"/>
</g>
<rect x=".5" y=".5" width="899" height="375" rx="16" fill="none" stroke="#30363d"/>

<text class="label" x="50" y="50">LIVE FROM MY VPS</text>
<text class="title" x="48" y="80">Status</text>
<circle cx="132" cy="73" r="4" fill="#3fb950"/>
<text class="summary" x="142" y="77" fill="#3fb950">All systems operational</text>
<text class="checked" x="440" y="50" text-anchor="end">last 24h · 22:22 UTC</text>
<circle class="dot" cx="56" cy="124" r="4.5" fill="#3fb950"/><text class="svc" x="72" y="124">cstonx.thaskow.fr</text><text class="role" x="72" y="139">CS2 stats website</text><rect x="240" y="116" width="3" height="16" rx="1.5" fill="#3fb950" fill-opacity="0.37"/><rect x="245" y="116" width="3" height="16" rx="1.5" fill="#3fb950" fill-opacity="0.39"/><rect x="250" y="116" width="3" height="16" rx="1.5" fill="#3fb950" fill-opacity="0.41"/><rect x="255" y="116" width="3" height="16" rx="1.5" fill="#3fb950" fill-opacity="0.44"/><rect x="260" y="116" width="3" height="16" rx="1.5" fill="#3fb950" fill-opacity="0.46"/><rect x="265" y="116" width="3" height="16" rx="1.5" fill="#3fb950" fill-opacity="0.48"/><rect x="270" y="116" width="3" height="16" rx="1.5" fill="#3fb950" fill-opacity="0.50"/><rect x="275" y="116" width="3" height="16" rx="1.5" fill="#3fb950" fill-opacity="0.52"/><rect x="280" y="116" width="3" height="16" rx="1.5" fill="#3fb950" fill-opacity="0.54"/><rect x="285" y="116" width="3" height="16" rx="1.5" fill="#3fb950" fill-opacity="0.57"/><rect x="290" y="116" width="3" height="16" rx="1.5" fill="#3fb950" fill-opacity="0.59"/><rect x="295" y="116" width="3" height="16" rx="1.5" fill="#3fb950" fill-opacity="0.61"/><rect x="300" y="116" width="3" height="16" rx="1.5" fill="#3fb950" fill-opacity="0.63"/><rect x="305" y="116" width="3" height="16" rx="1.5" fill="#3fb950" fill-opacity="0.65"/><rect x="310" y="116" width="3" height="16" rx="1.5" fill="#3fb950" fill-opacity="0.68"/><rect x="315" y="116" width="3" height="16" rx="1.5" fill="#3fb950" fill-opacity="0.70"/><rect x="320" y="116" width="3" height="16" rx="1.5" fill="#3fb950" fill-opacity="0.72"/><rect x="325" y="116" width="3" height="16" rx="1.5" fill="#3fb950" fill-opacity="0.74"/><rect x="330" y="116" width="3" height="16" rx="1.5" fill="#3fb950" fill-opacity="0.76"/><rect x="335" y="116" width="3" height="16" rx="1.5" fill="#3fb950" fill-opacity="0.78"/><rect x="340" y="116" width="3" height="16" rx="1.5" fill="#3fb950" fill-opacity="0.80"/><rect x="345" y="116" width="3" height="16" rx="1.5" fill="#3fb950" fill-opacity="0.83"/><rect x="350" y="116" width="3" height="16" rx="1.5" fill="#3fb950" fill-opacity="0.85"/><rect x="355" y="116" width="3" height="16" rx="1.5" fill="#3fb950" fill-opacity="0.87"/><rect x="360" y="116" width="3" height="16" rx="1.5" fill="#3fb950" fill-opacity="0.89"/><rect x="365" y="116" width="3" height="16" rx="1.5" fill="#3fb950" fill-opacity="0.91"/><rect x="370" y="116" width="3" height="16" rx="1.5" fill="#3fb950" fill-opacity="0.94"/><rect x="375" y="116" width="3" height="16" rx="1.5" fill="#3fb950" fill-opacity="0.96"/><rect x="380" y="116" width="3" height="16" rx="1.5" fill="#3fb950" fill-opacity="0.98"/><rect x="385" y="116" width="3" height="16" rx="1.5" fill="#3fb950" fill-opacity="1.00"/><text class="pct" x="440" y="128" text-anchor="end">99.9%</text><circle class="dot" cx="56" cy="162" r="4.5" fill="#3fb950"/><text class="svc" x="72" y="162">ntfy</text><text class="role" x="72" y="177">Push notifications</text><rect x="240" y="154" width="3" height="16" rx="1.5" fill="#3fb950" fill-opacity="0.37"/><rect x="245" y="154" width="3" height="16" rx="1.5" fill="#3fb950" fill-opacity="0.39"/><rect x="250" y="154" width="3" height="16" rx="1.5" fill="#3fb950" fill-opacity="0.41"/><rect x="255" y="154" width="3" height="16" rx="1.5" fill="#3fb950" fill-opacity="0.44"/><rect x="260" y="154" width="3" height="16" rx="1.5" fill="#3fb950" fill-opacity="0.46"/><rect x="265" y="154" width="3" height="16" rx="1.5" fill="#3fb950" fill-opacity="0.48"/><rect x="270" y="154" width="3" height="16" rx="1.5" fill="#3fb950" fill-opacity="0.50"/><rect x="275" y="154" width="3" height="16" rx="1.5" fill="#3fb950" fill-opacity="0.52"/><rect x="280" y="154" width="3" height="16" rx="1.5" fill="#3fb950" fill-opacity="0.54"/><rect x="285" y="154" width="3" height="16" rx="1.5" fill="#3fb950" fill-opacity="0.57"/><rect x="290" y="154" width="3" height="16" rx="1.5" fill="#3fb950" fill-opacity="0.59"/><rect x="295" y="154" width="3" height="16" rx="1.5" fill="#3fb950" fill-opacity="0.61"/><rect x="300" y="154" width="3" height="16" rx="1.5" fill="#3fb950" fill-opacity="0.63"/><rect x="305" y="154" width="3" height="16" rx="1.5" fill="#3fb950" fill-opacity="0.65"/><rect x="310" y="154" width="3" height="16" rx="1.5" fill="#3fb950" fill-opacity="0.68"/><rect x="315" y="154" width="3" height="16" rx="1.5" fill="#3fb950" fill-opacity="0.70"/><rect x="320" y="154" width="3" height="16" rx="1.5" fill="#3fb950" fill-opacity="0.72"/><rect x="325" y="154" width="3" height="16" rx="1.5" fill="#3fb950" fill-opacity="0.74"/><rect x="330" y="154" width="3" height="16" rx="1.5" fill="#3fb950" fill-opacity="0.76"/><rect x="335" y="154" width="3" height="16" rx="1.5" fill="#3fb950" fill-opacity="0.78"/><rect x="340" y="154" width="3" height="16" rx="1.5" fill="#3fb950" fill-opacity="0.80"/><rect x="345" y="154" width="3" height="16" rx="1.5" fill="#3fb950" fill-opacity="0.83"/><rect x="350" y="154" width="3" height="16" rx="1.5" fill="#3fb950" fill-opacity="0.85"/><rect x="355" y="154" width="3" height="16" rx="1.5" fill="#3fb950" fill-opacity="0.87"/><rect x="360" y="154" width="3" height="16" rx="1.5" fill="#3fb950" fill-opacity="0.89"/><rect x="365" y="154" width="3" height="16" rx="1.5" fill="#3fb950" fill-opacity="0.91"/><rect x="370" y="154" width="3" height="16" rx="1.5" fill="#3fb950" fill-opacity="0.94"/><rect x="375" y="154" width="3" height="16" rx="1.5" fill="#3fb950" fill-opacity="0.96"/><rect x="380" y="154" width="3" height="16" rx="1.5" fill="#3fb950" fill-opacity="0.98"/><rect x="385" y="154" width="3" height="16" rx="1.5" fill="#3fb950" fill-opacity="1.00"/><text class="pct" x="440" y="166" text-anchor="end">100%</text><circle class="dot" cx="56" cy="200" r="4.5" fill="#3fb950"/><text class="svc" x="72" y="200">Beszel</text><text class="role" x="72" y="215">Server monitoring</text><rect x="240" y="192" width="3" height="16" rx="1.5" fill="#3fb950" fill-opacity="0.37"/><rect x="245" y="192" width="3" height="16" rx="1.5" fill="#3fb950" fill-opacity="0.39"/><rect x="250" y="192" width="3" height="16" rx="1.5" fill="#3fb950" fill-opacity="0.41"/><rect x="255" y="192" width="3" height="16" rx="1.5" fill="#3fb950" fill-opacity="0.44"/><rect x="260" y="192" width="3" height="16" rx="1.5" fill="#3fb950" fill-opacity="0.46"/><rect x="265" y="192" width="3" height="16" rx="1.5" fill="#3fb950" fill-opacity="0.48"/><rect x="270" y="192" width="3" height="16" rx="1.5" fill="#3fb950" fill-opacity="0.50"/><rect x="275" y="192" width="3" height="16" rx="1.5" fill="#3fb950" fill-opacity="0.52"/><rect x="280" y="192" width="3" height="16" rx="1.5" fill="#3fb950" fill-opacity="0.54"/><rect x="285" y="192" width="3" height="16" rx="1.5" fill="#3fb950" fill-opacity="0.57"/><rect x="290" y="192" width="3" height="16" rx="1.5" fill="#3fb950" fill-opacity="0.59"/><rect x="295" y="192" width="3" height="16" rx="1.5" fill="#3fb950" fill-opacity="0.61"/><rect x="300" y="192" width="3" height="16" rx="1.5" fill="#3fb950" fill-opacity="0.63"/><rect x="305" y="192" width="3" height="16" rx="1.5" fill="#3fb950" fill-opacity="0.65"/><rect x="310" y="192" width="3" height="16" rx="1.5" fill="#3fb950" fill-opacity="0.68"/><rect x="315" y="192" width="3" height="16" rx="1.5" fill="#3fb950" fill-opacity="0.70"/><rect x="320" y="192" width="3" height="16" rx="1.5" fill="#3fb950" fill-opacity="0.72"/><rect x="325" y="192" width="3" height="16" rx="1.5" fill="#3fb950" fill-opacity="0.74"/><rect x="330" y="192" width="3" height="16" rx="1.5" fill="#3fb950" fill-opacity="0.76"/><rect x="335" y="192" width="3" height="16" rx="1.5" fill="#3fb950" fill-opacity="0.78"/><rect x="340" y="192" width="3" height="16" rx="1.5" fill="#3fb950" fill-opacity="0.80"/><rect x="345" y="192" width="3" height="16" rx="1.5" fill="#3fb950" fill-opacity="0.83"/><rect x="350" y="192" width="3" height="16" rx="1.5" fill="#3fb950" fill-opacity="0.85"/><rect x="355" y="192" width="3" height="16" rx="1.5" fill="#3fb950" fill-opacity="0.87"/><rect x="360" y="192" width="3" height="16" rx="1.5" fill="#3fb950" fill-opacity="0.89"/><rect x="365" y="192" width="3" height="16" rx="1.5" fill="#3fb950" fill-opacity="0.91"/><rect x="370" y="192" width="3" height="16" rx="1.5" fill="#3fb950" fill-opacity="0.94"/><rect x="375" y="192" width="3" height="16" rx="1.5" fill="#3fb950" fill-opacity="0.96"/><rect x="380" y="192" width="3" height="16" rx="1.5" fill="#3fb950" fill-opacity="0.98"/><rect x="385" y="192" width="3" height="16" rx="1.5" fill="#3fb950" fill-opacity="1.00"/><text class="pct" x="440" y="204" text-anchor="end">100%</text><circle class="dot" cx="56" cy="238" r="4.5" fill="#3fb950"/><text class="svc" x="72" y="238">GlitchTip</text><text class="role" x="72" y="253">Error tracking</text><rect x="240" y="230" width="3" height="16" rx="1.5" fill="#3fb950" fill-opacity="0.37"/><rect x="245" y="230" width="3" height="16" rx="1.5" fill="#3fb950" fill-opacity="0.39"/><rect x="250" y="230" width="3" height="16" rx="1.5" fill="#3fb950" fill-opacity="0.41"/><rect x="255" y="230" width="3" height="16" rx="1.5" fill="#3fb950" fill-opacity="0.44"/><rect x="260" y="230" width="3" height="16" rx="1.5" fill="#3fb950" fill-opacity="0.46"/><rect x="265" y="230" width="3" height="16" rx="1.5" fill="#3fb950" fill-opacity="0.48"/><rect x="270" y="230" width="3" height="16" rx="1.5" fill="#3fb950" fill-opacity="0.50"/><rect x="275" y="230" width="3" height="16" rx="1.5" fill="#3fb950" fill-opacity="0.52"/><rect x="280" y="230" width="3" height="16" rx="1.5" fill="#3fb950" fill-opacity="0.54"/><rect x="285" y="230" width="3" height="16" rx="1.5" fill="#3fb950" fill-opacity="0.57"/><rect x="290" y="230" width="3" height="16" rx="1.5" fill="#3fb950" fill-opacity="0.59"/><rect x="295" y="230" width="3" height="16" rx="1.5" fill="#3fb950" fill-opacity="0.61"/><rect x="300" y="230" width="3" height="16" rx="1.5" fill="#3fb950" fill-opacity="0.63"/><rect x="305" y="230" width="3" height="16" rx="1.5" fill="#3fb950" fill-opacity="0.65"/><rect x="310" y="230" width="3" height="16" rx="1.5" fill="#3fb950" fill-opacity="0.68"/><rect x="315" y="230" width="3" height="16" rx="1.5" fill="#3fb950" fill-opacity="0.70"/><rect x="320" y="230" width="3" height="16" rx="1.5" fill="#3fb950" fill-opacity="0.72"/><rect x="325" y="230" width="3" height="16" rx="1.5" fill="#3fb950" fill-opacity="0.74"/><rect x="330" y="230" width="3" height="16" rx="1.5" fill="#3fb950" fill-opacity="0.76"/><rect x="335" y="230" width="3" height="16" rx="1.5" fill="#3fb950" fill-opacity="0.78"/><rect x="340" y="230" width="3" height="16" rx="1.5" fill="#3fb950" fill-opacity="0.80"/><rect x="345" y="230" width="3" height="16" rx="1.5" fill="#3fb950" fill-opacity="0.83"/><rect x="350" y="230" width="3" height="16" rx="1.5" fill="#3fb950" fill-opacity="0.85"/><rect x="355" y="230" width="3" height="16" rx="1.5" fill="#3fb950" fill-opacity="0.87"/><rect x="360" y="230" width="3" height="16" rx="1.5" fill="#3fb950" fill-opacity="0.89"/><rect x="365" y="230" width="3" height="16" rx="1.5" fill="#3fb950" fill-opacity="0.91"/><rect x="370" y="230" width="3" height="16" rx="1.5" fill="#3fb950" fill-opacity="0.94"/><rect x="375" y="230" width="3" height="16" rx="1.5" fill="#3fb950" fill-opacity="0.96"/><rect x="380" y="230" width="3" height="16" rx="1.5" fill="#3fb950" fill-opacity="0.98"/><rect x="385" y="230" width="3" height="16" rx="1.5" fill="#3fb950" fill-opacity="1.00"/><text class="pct" x="440" y="242" text-anchor="end">100%</text><circle class="dot" cx="56" cy="276" r="4.5" fill="#3fb950"/><text class="svc" x="72" y="276">Umami</text><text class="role" x="72" y="291">Web analytics</text><rect x="240" y="268" width="3" height="16" rx="1.5" fill="#3fb950" fill-opacity="0.37"/><rect x="245" y="268" width="3" height="16" rx="1.5" fill="#3fb950" fill-opacity="0.39"/><rect x="250" y="268" width="3" height="16" rx="1.5" fill="#3fb950" fill-opacity="0.41"/><rect x="255" y="268" width="3" height="16" rx="1.5" fill="#3fb950" fill-opacity="0.44"/><rect x="260" y="268" width="3" height="16" rx="1.5" fill="#3fb950" fill-opacity="0.46"/><rect x="265" y="268" width="3" height="16" rx="1.5" fill="#3fb950" fill-opacity="0.48"/><rect x="270" y="268" width="3" height="16" rx="1.5" fill="#3fb950" fill-opacity="0.50"/><rect x="275" y="268" width="3" height="16" rx="1.5" fill="#3fb950" fill-opacity="0.52"/><rect x="280" y="268" width="3" height="16" rx="1.5" fill="#3fb950" fill-opacity="0.54"/><rect x="285" y="268" width="3" height="16" rx="1.5" fill="#3fb950" fill-opacity="0.57"/><rect x="290" y="268" width="3" height="16" rx="1.5" fill="#3fb950" fill-opacity="0.59"/><rect x="295" y="268" width="3" height="16" rx="1.5" fill="#3fb950" fill-opacity="0.61"/><rect x="300" y="268" width="3" height="16" rx="1.5" fill="#3fb950" fill-opacity="0.63"/><rect x="305" y="268" width="3" height="16" rx="1.5" fill="#3fb950" fill-opacity="0.65"/><rect x="310" y="268" width="3" height="16" rx="1.5" fill="#3fb950" fill-opacity="0.68"/><rect x="315" y="268" width="3" height="16" rx="1.5" fill="#3fb950" fill-opacity="0.70"/><rect x="320" y="268" width="3" height="16" rx="1.5" fill="#3fb950" fill-opacity="0.72"/><rect x="325" y="268" width="3" height="16" rx="1.5" fill="#3fb950" fill-opacity="0.74"/><rect x="330" y="268" width="3" height="16" rx="1.5" fill="#3fb950" fill-opacity="0.76"/><rect x="335" y="268" width="3" height="16" rx="1.5" fill="#3fb950" fill-opacity="0.78"/><rect x="340" y="268" width="3" height="16" rx="1.5" fill="#3fb950" fill-opacity="0.80"/><rect x="345" y="268" width="3" height="16" rx="1.5" fill="#3fb950" fill-opacity="0.83"/><rect x="350" y="268" width="3" height="16" rx="1.5" fill="#3fb950" fill-opacity="0.85"/><rect x="355" y="268" width="3" height="16" rx="1.5" fill="#3fb950" fill-opacity="0.87"/><rect x="360" y="268" width="3" height="16" rx="1.5" fill="#3fb950" fill-opacity="0.89"/><rect x="365" y="268" width="3" height="16" rx="1.5" fill="#3fb950" fill-opacity="0.91"/><rect x="370" y="268" width="3" height="16" rx="1.5" fill="#3fb950" fill-opacity="0.94"/><rect x="375" y="268" width="3" height="16" rx="1.5" fill="#3fb950" fill-opacity="0.96"/><rect x="380" y="268" width="3" height="16" rx="1.5" fill="#3fb950" fill-opacity="0.98"/><rect x="385" y="268" width="3" height="16" rx="1.5" fill="#3fb950" fill-opacity="1.00"/><text class="pct" x="440" y="280" text-anchor="end">100%</text>

<line x1="470" y1="40" x2="470" y2="336" stroke="#30363d"/>
<text class="label" x="500" y="50">RECENTLY SHIPPED</text>
<text class="title" x="500" y="80">CStonx releases</text>
<rect x="500" y="114" width="58" height="20" rx="10" fill="#7b6cff" fill-opacity=".16" stroke="#7b6cff" stroke-opacity=".5"/><text class="tag" x="529" y="128" text-anchor="middle">v0.2.6</text><text class="date" x="568" y="128">8 Oct 2026</text><text class="note" x="500" y="150">L&#x27;adresse du site est maintenant</text><text class="note" x="500" y="167">https://cstonx.thaskow.fr par défaut ; une…</text><rect x="500" y="188" width="58" height="20" rx="10" fill="#7b6cff" fill-opacity=".16" stroke="#7b6cff" stroke-opacity=".5"/><text class="tag" x="529" y="202" text-anchor="middle">v0.2.5</text><text class="date" x="568" y="202">1 Oct 2026</text><text class="note" x="500" y="224">Tes amis Steam présents dans la partie (premades)</text><text class="note" x="500" y="241">sont maintenant détectés : avant, ils manquaient…</text><rect x="500" y="262" width="58" height="20" rx="10" fill="#7b6cff" fill-opacity=".16" stroke="#7b6cff" stroke-opacity=".5"/><text class="tag" x="529" y="276" text-anchor="middle">v0.2.4</text><text class="date" x="568" y="276">1 Oct 2026</text><text class="note" x="500" y="298">CStonx 0.2.4</text>
</svg>
</g>
</svg>
